<svg width="400" height="400" viewBox="0 0 400 400" xmlns="http://www.w3.org/2000/svg">
<g transform="translate(200,200)">
<circle cx="0" cy="0" r="150" fill="none" stroke="#b8a49b" stroke-width="2.5"/>
<path d="M0 -144 L58 -75 L0 -36 Z" fill="#d4896b" opacity="0.5" stroke="#d4896b" stroke-width="0.5"/>
<path d="M0 -144 L-58 -75 L0 -36 Z" fill="#8b9dad" opacity="0.5" stroke="#8b9dad" stroke-width="0.5"/>
<path d="M125 -72 L75 12 L25 -30 Z" fill="#d4896b" opacity="0.5" stroke="#d4896b" stroke-width="0.5"/>
<path d="M-125 -72 L-75 12 L-25 -30 Z" fill="#8b9dad" opacity="0.5" stroke="#8b9dad" stroke-width="0.5"/>
<path d="M125 72 L25 30 L75 -12 Z" fill="#8b9dad" opacity="0.5" stroke="#8b9dad" stroke-width="0.5"/>
<path d="M-125 72 L-25 30 L-75 -12 Z" fill="#d4896b" opacity="0.5" stroke="#d4896b" stroke-width="0.5"/>
<path d="M0 144 L-58 75 L0 36 Z" fill="#8b9dad" opacity="0.5" stroke="#8b9dad" stroke-width="0.5"/>
<path d="M0 144 L58 75 L0 36 Z" fill="#d4896b" opacity="0.5" stroke="#d4896b" stroke-width="0.5"/>
<circle cx="0" cy="0" r="33" fill="none" stroke="#b8a49b" stroke-width="1.8"/>
<path d="M-20 19 L-20 -19 L0 3" fill="none" stroke="#d4896b" stroke-width="2.2" stroke-linecap="round" stroke-linejoin="round"/>
<path d="M0 3 L20 -19 L20 19" fill="none" stroke="#8b9dad" stroke-width="2.2" stroke-linecap="round" stroke-linejoin="round"/>
<circle cx="0" cy="3" r="2.5" fill="#b8a49b"/>
</g>
</svg>
